<!DOCTYPE svg PUBLIC "-//W3C//DTD SVG 1.1//EN" "http://www.w3.org/Graphics/SVG/1.1/DTD/svg11.dtd">
<!-- Uploaded to: SVG Repo, www.svgrepo.com, Transformed by: SVG Repo Mixer Tools -->
<svg height="64px" width="64px" version="1.1" id="Layer_1" xmlns="http://www.w3.org/2000/svg" xmlns:xlink="http://www.w3.org/1999/xlink" viewBox="0 0 512 512" xml:space="preserve" fill="#000000">
<g id="SVGRepo_bgCarrier" stroke-width="0"/>
<g id="SVGRepo_tracerCarrier" stroke-linecap="round" stroke-linejoin="round"/>
<g id="SVGRepo_iconCarrier"> <g> <g> <path style="fill:#ffff01;" d="M267.414,3.805c-7.609-4.348-16.306-4.348-22.828,0C86.964,101.639,0,232.085,0,370.14v119.575 c0,11.958,9.783,21.741,21.741,21.741h161.97h143.49h161.97c11.958,0,21.741-9.783,22.828-20.654V370.14 C512,230.998,425.036,101.639,267.414,3.805z M204.365,469.062V333.18h101.096v135.881H204.365z M468.518,469.062H348.943V312.527 c0-11.958-9.783-21.741-21.741-21.741h-143.49c-11.958,0-21.741,9.783-21.741,21.741v156.535H42.395V370.14 c0-120.662,76.093-234.803,213.062-322.854c138.055,89.138,213.062,203.278,213.062,322.854V469.062z"/> </g> </g> </g>
</svg>