<!DOCTYPE svg PUBLIC "-//W3C//DTD SVG 1.1//EN" "http://www.w3.org/Graphics/SVG/1.1/DTD/svg11.dtd">
<!-- Uploaded to: SVG Repo, www.svgrepo.com, Transformed by: SVG Repo Mixer Tools -->
<svg fill="#ffff00" version="1.1" id="Capa_1" xmlns="http://www.w3.org/2000/svg" xmlns:xlink="http://www.w3.org/1999/xlink" width="64px" height="64px" viewBox="0 0 557.661 557.661" xml:space="preserve" stroke="#ffff00">
<g id="SVGRepo_bgCarrier" stroke-width="0"/>
<g id="SVGRepo_tracerCarrier" stroke-linecap="round" stroke-linejoin="round"/>
<g id="SVGRepo_iconCarrier"> <g> <g> <path d="M417.67,200.519c4.933,0,9.618-2.047,12.857-5.61c3.229-3.568,4.826-8.429,4.345-13.332L423.526,61.731 c-0.924-9.651-9.227-17.217-18.925-17.217h-44.515V18.123C360.087,8.128,351.948,0,341.965,0h-9.937 c-9.992,0-18.127,8.128-18.127,18.123v26.392H144.097c-9.743,0-18.027,7.61-18.851,17.336l-10.088,119.802 c-0.413,4.903,1.209,9.743,4.459,13.285c3.253,3.545,7.948,5.582,12.87,5.582h9.061v138.372c0,5.008-1.981,12.596-4.44,16.955 l-11.752,20.797c-2.455,4.358-4.462,11.947-4.462,16.955v154.998c0,5.018,4.056,9.064,9.066,9.064h292.255 c5.012,0,9.059-4.047,9.059-9.064V393.598c0-5.008-2.133-12.517-4.77-16.764l-13.12-21.188 c-2.632-4.252-4.774-11.752-4.774-16.765V200.519H417.67z M417.67,182.394h0.004l-0.004,9.063V182.394z M200.489,451.741 c0,5.008-4.051,9.063-9.061,9.063H162.14c-5.015,0-9.061-4.056-9.061-9.063V382.79c0-5.013,4.046-9.068,9.061-9.068h29.288 c5.01,0,9.061,4.056,9.061,9.068V451.741z M193.848,312.405v-68.96c0-5,4.051-9.061,9.061-9.061h29.288 c5.015,0,9.066,4.061,9.066,9.061v68.96c0,5.008-4.051,9.06-9.066,9.06h-29.288C197.908,321.464,193.848,317.413,193.848,312.405z M309.323,482.753c0,5.013-4.056,9.059-9.068,9.059h-50.974c-5.01,0-9.061-4.046-9.061-9.059V382.79 c0-5.013,4.051-9.068,9.061-9.068h50.974c5.013,0,9.068,4.056,9.068,9.068V482.753z M317.248,511.638 c0,4.69-4.051,8.503-9.059,8.503h-66.837c-5.012,0-9.063-3.804-9.063-8.503c0-4.695,4.051-8.494,9.063-8.494h66.837 C313.197,503.144,317.248,506.943,317.248,511.638z M319.512,546.188h-89.487c-5.01,0-9.061-3.556-9.061-7.929 c0-4.378,4.051-7.935,9.061-7.935h89.487c5.013,0,9.068,3.557,9.068,7.935C328.58,542.632,324.524,546.188,319.512,546.188z M317.575,321.464c-5.013,0-9.064-4.052-9.064-9.06v-68.96c0-5,4.052-9.061,9.064-9.061h29.29c5.013,0,9.059,4.061,9.059,9.061 v68.96c0,5.008-4.046,9.06-9.059,9.06H317.575z M395.328,451.741c0,5.008-4.051,9.063-9.059,9.063h-29.295 c-5.008,0-9.055-4.056-9.055-9.063V382.79c0-5.013,4.047-9.068,9.055-9.068h29.295c5.008,0,9.059,4.056,9.059,9.068V451.741z M336.868,182.394c-0.62-1.211-1.063-2.536-1.082-3.985c-0.146-8.438-0.346-21.984-0.574-37.255 c-0.411-25.576-22.565-46.309-49.509-46.309h-15.679c-26.941,0-48.783,20.733-48.783,46.309v37.246 c0,1.458-0.416,2.784-1.022,3.995h-86.925l10.004-119.013c0.028-0.308,0.5-0.744,0.798-0.744h169.804 c9.988,0,18.127-8.128,18.127-18.123V18.123h9.937v26.392c0,9.995,8.125,18.123,18.122,18.123h44.515 c0.336,0,0.858,0.49,0.892,0.816l11.257,118.94H336.868z"/> <path d="M56.998,394.209c-16.047,25.053-23.307,49.695-25.646,71.967c-3.134-4.019-8.506-3.809-11.369,0.653 c-29.881,46.634-5.157,90.826-5.157,90.826h11.497c0.156-11.094,0.21-22.08,0.072-33.1c-0.098-13.898-0.487-27.778-0.161-41.892 c3.615,13.685,4.947,27.765,5.192,41.836c0.047,11.075-0.616,22.276-2.957,33.155h12.373c1.022-3.085,1.883-6.081,2.634-9.04 c2.439,5.787,4.235,9.04,4.235,9.04h20.715c0.252-19.962,0.383-39.731,0.119-59.571c-0.166-25.016-0.88-50.008-0.301-75.396 c6.516,24.624,8.91,49.98,9.353,75.309c0.084,19.919-1.125,40.085-5.32,59.659h22.257c26.934-80.811,0.327-138.402-16.139-163.769 C72.931,385.505,62.402,385.776,56.998,394.209z"/> <path d="M537.081,466.67c-3.038-4.672-8.881-4.518-11.892,0.168c-1.021,1.592-1.829,3.184-2.729,4.766 c-1.686-23.652-8.761-50.297-26.136-77.395c-5.409-8.438-15.929-8.713-21.385-0.312c-16.466,25.365-43.068,82.957-16.139,163.764 h22.257c-4.2-19.574-5.404-39.736-5.32-59.655c0.448-25.337,2.838-50.693,9.349-75.312c0.583,25.403-0.131,50.386-0.294,75.401 c-0.262,19.835-0.15,39.614,0.116,59.566h20.717c0,0,3.729-6.707,7.729-18.244c2.828,11.248,6.669,18.244,6.669,18.244h11.504 c0.149-11.094,0.206-22.076,0.07-33.095c-0.103-13.903-0.49-27.773-0.168-41.896c3.617,13.684,4.947,27.765,5.194,41.841 c0.047,11.074-0.611,22.271-2.949,33.15h12.363C561.015,512.758,546.233,480.756,537.081,466.67z"/> </g> </g> </g>
</svg>