<?xml version="1.0" encoding="iso-8859-1"?>
<!-- Uploaded to: SVG Repo, www.svgrepo.com, Generator: SVG Repo Mixer Tools -->
<svg height="800px" width="800px" version="1.1" id="Layer_1" xmlns="http://www.w3.org/2000/svg" xmlns:xlink="http://www.w3.org/1999/xlink" 
	 viewBox="0 0 512 512" xml:space="preserve">
<g>
	<path style="fill:#3F5968;" d="M370.831,414.194c25.724,0,46.601-2.745,63.493-6.922L302.826,149.402L184.845,377.586l-0.001,0.001
		C245.66,388.06,284.447,414.194,370.831,414.194z"/>
	<path style="fill:#3F5968;" d="M434.324,407.271l-0.001-0.001c-0.162,0.04-0.32,0.082-0.483,0.12
		C433.997,407.353,434.15,407.315,434.324,407.271z"/>
	<path style="fill:#3F5968;" d="M501.55,365.847l-70.794-123.896l-50.989,58.334l54.556,106.985
		C488.595,393.962,501.517,365.921,501.55,365.847z"/>
</g>
<path style="fill:#92E03F;" d="M501.551,365.845c0,0-22.691,48.348-130.72,48.348c-108.024,0-141.613-40.872-236.929-40.872
	c-63.541,0-123.454,43.145-123.454,43.145v86.259h491.102V365.845z"/>
<ellipse style="fill:#1EB615;" cx="92.641" cy="255.09" rx="66.873" ry="81.501"/>
<path style="fill:#10BAFC;" d="M309.602,99.052c0-27.403-22.302-49.698-49.72-49.698c-1.713,0-3.42,0.092-5.118,0.263
	c-8.624-22.519-30.342-37.73-54.967-37.73c-24.622,0-46.341,15.213-54.964,37.73c-1.699-0.171-3.407-0.263-5.12-0.263
	c-27.418,0-49.72,22.296-49.72,49.698H309.602z"/>
<path d="M249.582,355.465l22.673-43.692c2.658-5.122,0.66-11.429-4.462-14.087c-5.126-2.66-11.43-0.659-14.087,4.462l-22.673,43.692
	c-2.658,5.122-0.66,11.429,4.462,14.087c1.539,0.798,3.184,1.177,4.804,1.177C244.077,361.104,247.723,359.049,249.582,355.465z"/>
<path d="M274.403,284.625c1.576,0.848,3.271,1.25,4.942,1.25c3.721,0,7.324-1.993,9.21-5.499l3.028-5.626
	c2.735-5.081,0.833-11.418-4.249-14.153c-5.079-2.734-11.419-0.834-14.153,4.249l-3.028,5.626
	C267.42,275.553,269.321,281.89,274.403,284.625z"/>
<path d="M511.996,364.446c-0.001-0.163-0.013-0.327-0.022-0.49c-0.008-0.158-0.018-0.316-0.033-0.472
	c-0.016-0.156-0.038-0.31-0.061-0.465c-0.025-0.169-0.053-0.337-0.086-0.505c-0.028-0.14-0.059-0.28-0.092-0.42
	c-0.046-0.191-0.098-0.379-0.155-0.566c-0.034-0.115-0.067-0.23-0.107-0.345c-0.086-0.251-0.181-0.496-0.284-0.739
	c-0.022-0.051-0.041-0.104-0.064-0.156c-0.139-0.312-0.294-0.616-0.462-0.913c-0.003-0.005-0.005-0.01-0.008-0.016l-70.794-123.899
	c-1.676-2.935-4.671-4.877-8.033-5.213c-3.358-0.339-6.682,0.976-8.906,3.52l-40.827,46.709l-69.929-137.128
	c-1.779-3.49-5.361-5.691-9.279-5.702c-0.01,0-0.02,0-0.029,0c-3.906,0-7.487,2.179-9.282,5.65L179.019,364.797
	c-13.689-2.006-28.541-3.231-45.117-3.231c-10.473,0-20.812,1.087-30.81,2.921v-19.591c37.712-6.085,66.875-44.619,66.875-91.108
	c0-50.703-34.686-91.952-77.323-91.952c-42.635,0-77.321,41.249-77.321,91.952c0,46.488,29.162,85.022,66.872,91.108v24.567
	C38.978,382.036,6.206,405.34,4.343,406.682C1.616,408.645,0,411.8,0,415.16v86.259c0,5.771,4.679,10.449,10.449,10.449h491.102
	c5.77,0,10.449-4.678,10.449-10.449V364.539C512,364.508,511.997,364.478,511.996,364.446z M36.22,253.79
	c0-39.18,25.312-71.054,56.423-71.054c31.113,0,56.426,31.875,56.426,71.054c0,34.681-19.841,63.621-45.977,69.811v-11.856
	l25.855-25.855c4.08-4.08,4.08-10.697,0-14.778c-4.081-4.08-10.696-4.08-14.778,0l-21.527,21.527l-11.158-11.159
	c-4.08-4.08-10.695-4.08-14.778,0c-4.08,4.08-4.08,10.697,0,14.777l15.486,15.487V323.6C56.06,317.409,36.22,288.471,36.22,253.79z
	 M428.964,258.572l60.327,105.578c-5.381,6.739-19.411,20.397-49.546,29.446l-47.457-93.064L428.964,258.572z M302.761,170.971
	l67.603,132.569c0.005,0.011,0.011,0.022,0.018,0.033l48.425,94.961c-13.53,2.416-29.4,3.904-47.975,3.904
	c-54.155,0-89.343-10.649-123.372-20.947c-14.977-4.533-30.192-9.133-46.942-12.773L302.761,170.971z M491.102,490.971H20.898
	v-70.245c14.506-9.401,63.11-38.261,113.005-38.261c18.394,0,34.394,1.574,49.115,4.105c0.001,0,0.002,0,0.003,0.001
	c20.988,3.61,39.378,9.172,58.384,14.923c35.485,10.738,72.177,21.843,129.425,21.843c26.222,0,47.754-2.791,65.381-7.107
	c0.458-0.085,0.913-0.197,1.365-0.346c25.167-6.349,42.237-15.809,53.524-24.583v99.671H491.102z"/>
<path d="M270.106,458.547H43.867c-5.77,0-10.449,4.678-10.449,10.449c0,5.771,4.679,10.449,10.449,10.449h226.239
	c5.77,0,10.449-4.678,10.449-10.449C280.555,463.225,275.876,458.547,270.106,458.547z"/>
<path d="M407.51,458.547H305.633c-5.77,0-10.449,4.678-10.449,10.449c0,5.771,4.679,10.449,10.449,10.449H407.51
	c5.77,0,10.449-4.678,10.449-10.449C417.959,463.225,413.28,458.547,407.51,458.547z"/>
<path d="M432.588,468.996c0,5.771,4.679,10.449,10.449,10.449h21.42c5.77,0,10.449-4.678,10.449-10.449
	c0-5.771-4.679-10.449-10.449-10.449h-21.42C437.267,458.547,432.588,463.225,432.588,468.996z"/>
<path d="M89.992,108.194h219.61c5.77,0,10.449-4.678,10.449-10.449c0-32.659-26.172-59.323-58.652-60.129
	c-11.758-22.695-35.635-37.486-61.603-37.486c-25.967,0-49.842,14.791-61.599,37.486c-32.481,0.806-58.654,27.469-58.654,60.129
	C79.543,103.516,84.222,108.194,89.992,108.194z M139.712,58.495c1.318,0,2.687,0.071,4.071,0.211
	c4.702,0.471,9.121-2.256,10.807-6.66c7.104-18.552,25.271-31.018,45.205-31.018c19.936,0,38.104,12.466,45.21,31.019
	c1.686,4.404,6.105,7.132,10.808,6.659c1.382-0.139,2.751-0.21,4.069-0.21c18.036,0,33.271,12.214,37.859,28.801H101.854
	C106.442,70.71,121.676,58.495,139.712,58.495z"/>
</svg>