<!DOCTYPE svg PUBLIC "-//W3C//DTD SVG 1.1//EN" "http://www.w3.org/Graphics/SVG/1.1/DTD/svg11.dtd">
<!-- Uploaded to: SVG Repo, www.svgrepo.com, Transformed by: SVG Repo Mixer Tools -->
<svg fill="#ffff00" height="64px" width="64px" version="1.1" id="Layer_1" xmlns="http://www.w3.org/2000/svg" xmlns:xlink="http://www.w3.org/1999/xlink" viewBox="0 0 511.993 511.993" xml:space="preserve" stroke="#ffff00">
<g id="SVGRepo_bgCarrier" stroke-width="0"/>
<g id="SVGRepo_tracerCarrier" stroke-linecap="round" stroke-linejoin="round"/>
<g id="SVGRepo_iconCarrier"> <g transform="translate(0 -1)"> <g> <g> <path d="M368.281,144.716c29.723,0,53.895-24.172,53.895-53.895s-24.172-53.895-53.895-53.895 c-29.723,0-53.895,24.172-53.895,53.895S338.558,144.716,368.281,144.716z"/> <path d="M509.683,183.403l-0.692-1.671c-3.162-7.599-9.081-13.51-16.68-16.644c-7.446-3.081-15.629-3.144-23.076-0.171 l-80.968,23.741l-87.471-71.617c-13.339-12.09-31.609-16.393-47.733-11.327c-38.31,12.09-110.287,35.589-121.335,39.523 c-21.136,7.527-50.886,31.843-50.886,62.356c0,25.357,14.004,46.7,40.484,61.71c16.968,9.62,58.898,30.828,77.114,39.981 l-37.25,63.335c-9.584,16.285-8.345,36.325,2.282,50.553H17.965C8.057,423.172,0,431.229,0,441.137v17.965 c0,9.908,8.057,17.965,17.965,17.965h404.211c24.765,0,44.912-20.148,44.912-44.912c0-6.908-3.853-13.096-10.051-16.177 c-6.09-3.018-13.213-2.353-18.585,1.734c-4.716,3.575-10.348,5.461-16.276,5.461H235.34c0.979-1.311,1.895-2.686,2.74-4.123 l72.704-121.461c1.231-2.057,1.59-4.518,0.997-6.836c-0.584-2.317-2.075-4.312-4.141-5.515l-95.546-56.284l82.001-20.498 l59.356,50.868c2.3,1.976,5.434,2.65,8.345,1.814l130.578-37.807c0.323-0.099,0.638-0.207,0.943-0.332 C508.739,216.584,516.078,198.817,509.683,183.403z M422.175,441.137c9.881,0,19.258-3.153,26.947-8.982 c0,14.857-12.09,26.947-26.947,26.947H17.965v-17.965H422.175z"/> </g> </g> </g> </g>
</svg>